<svg width="200" height="54" viewBox="0 0 200 54" fill="none" xmlns="http://www.w3.org/2000/svg">
<circle cx="27" cy="27" r="27" fill="#007DF2"/>
<path d="M7 27.4419H15.2188C15.2226 27.4419 15.2261 27.4397 15.2278 27.4364L18.7369 20.4911C18.7412 20.4826 18.7538 20.4843 18.7556 20.4936L22.9879 41.9389C22.9901 41.9501 23.0063 41.9495 23.0077 41.9382L26.9675 10.0604C26.9689 10.0491 26.9849 10.0485 26.9872 10.0596L31.993 34.4657C31.995 34.4756 32.0087 34.4766 32.0121 34.4672L34.6101 27.4484C34.6115 27.4445 34.6153 27.4419 34.6195 27.4419H54" stroke="white" stroke-width="2"/>
<path d="M67.96 30V9.84H71.376L78.04 23.224L84.704 9.84H88.12V30H84.564V17.96L78.712 30H77.368L71.516 17.96V30H67.96ZM99.0778 30.42C97.5285 30.42 96.1612 30.0887 94.9758 29.426C93.7998 28.754 92.8758 27.8347 92.2038 26.668C91.5412 25.492 91.2098 24.148 91.2098 22.636C91.2098 20.984 91.5365 19.5467 92.1898 18.324C92.8432 17.1013 93.7438 16.154 94.8918 15.482C96.0398 14.8007 97.3605 14.46 98.8538 14.46C100.441 14.46 101.789 14.8333 102.9 15.58C104.011 16.3267 104.832 17.3767 105.364 18.73C105.896 20.0833 106.083 21.6747 105.924 23.504H102.158V22.104C102.158 20.564 101.911 19.458 101.416 18.786C100.931 18.1047 100.133 17.764 99.0218 17.764C97.7245 17.764 96.7678 18.1607 96.1518 18.954C95.5452 19.738 95.2418 20.9 95.2418 22.44C95.2418 23.8493 95.5452 24.9413 96.1518 25.716C96.7678 26.4813 97.6685 26.864 98.8538 26.864C99.6005 26.864 100.24 26.7007 100.772 26.374C101.304 26.0473 101.71 25.576 101.99 24.96L105.798 26.052C105.229 27.4333 104.328 28.5067 103.096 29.272C101.873 30.0373 100.534 30.42 99.0778 30.42ZM94.0658 23.504V20.676H104.09V23.504H94.0658ZM115.217 30.42C113.826 30.42 112.608 30.07 111.563 29.37C110.518 28.67 109.701 27.718 109.113 26.514C108.534 25.31 108.245 23.952 108.245 22.44C108.245 20.9 108.539 19.5327 109.127 18.338C109.724 17.134 110.56 16.1867 111.633 15.496C112.706 14.8053 113.966 14.46 115.413 14.46C116.85 14.46 118.059 14.81 119.039 15.51C120.019 16.21 120.761 17.162 121.265 18.366C121.769 19.57 122.021 20.928 122.021 22.44C122.021 23.952 121.764 25.31 121.251 26.514C120.747 27.718 119.991 28.67 118.983 29.37C117.975 30.07 116.72 30.42 115.217 30.42ZM115.833 27.032C116.682 27.032 117.359 26.8407 117.863 26.458C118.376 26.0753 118.745 25.5387 118.969 24.848C119.193 24.1573 119.305 23.3547 119.305 22.44C119.305 21.5253 119.193 20.7227 118.969 20.032C118.745 19.3413 118.386 18.8047 117.891 18.422C117.406 18.0393 116.766 17.848 115.973 17.848C115.124 17.848 114.424 18.058 113.873 18.478C113.332 18.8887 112.93 19.444 112.669 20.144C112.408 20.8347 112.277 21.6 112.277 22.44C112.277 23.2893 112.403 24.064 112.655 24.764C112.907 25.4547 113.294 26.0053 113.817 26.416C114.34 26.8267 115.012 27.032 115.833 27.032ZM119.305 30V19.64H118.829V9.84H122.665V30H119.305ZM133.249 30.42C131.681 30.42 130.337 30.07 129.217 29.37C128.097 28.67 127.238 27.718 126.641 26.514C126.044 25.31 125.745 23.952 125.745 22.44C125.745 20.9093 126.053 19.542 126.669 18.338C127.294 17.134 128.172 16.1867 129.301 15.496C130.43 14.8053 131.765 14.46 133.305 14.46C135.088 14.46 136.581 14.9127 137.785 15.818C138.998 16.714 139.773 17.9413 140.109 19.5L136.301 20.508C136.077 19.724 135.685 19.1127 135.125 18.674C134.574 18.2353 133.949 18.016 133.249 18.016C132.446 18.016 131.788 18.212 131.275 18.604C130.762 18.9867 130.384 19.514 130.141 20.186C129.898 20.8487 129.777 21.6 129.777 22.44C129.777 23.756 130.066 24.8247 130.645 25.646C131.233 26.458 132.101 26.864 133.249 26.864C134.108 26.864 134.761 26.668 135.209 26.276C135.657 25.884 135.993 25.324 136.217 24.596L140.109 25.408C139.68 27.0133 138.868 28.25 137.673 29.118C136.478 29.986 135.004 30.42 133.249 30.42ZM142.779 30V9.42H146.587V30H142.779ZM151.064 12.78V9.42H154.872V12.78H151.064ZM151.064 30V14.88H154.872V30H151.064ZM169.373 30V22.86C169.373 22.5147 169.355 22.076 169.317 21.544C169.28 21.0027 169.163 20.4613 168.967 19.92C168.771 19.3787 168.449 18.926 168.001 18.562C167.563 18.198 166.937 18.016 166.125 18.016C165.799 18.016 165.449 18.0673 165.075 18.17C164.702 18.2727 164.352 18.4733 164.025 18.772C163.699 19.0613 163.428 19.4907 163.213 20.06C163.008 20.6293 162.905 21.3853 162.905 22.328L160.721 21.292C160.721 20.0973 160.964 18.9773 161.449 17.932C161.935 16.8867 162.663 16.042 163.633 15.398C164.613 14.754 165.845 14.432 167.329 14.432C168.515 14.432 169.481 14.6327 170.227 15.034C170.974 15.4353 171.553 15.944 171.963 16.56C172.383 17.176 172.682 17.82 172.859 18.492C173.037 19.1547 173.144 19.7613 173.181 20.312C173.219 20.8627 173.237 21.264 173.237 21.516V30H169.373ZM159.041 30V14.88H162.429V19.892H162.905V30H159.041ZM177.15 12.78V9.42H180.958V12.78H177.15ZM177.15 30V14.88H180.958V30H177.15ZM191.819 30.42C190.251 30.42 188.907 30.07 187.787 29.37C186.667 28.67 185.809 27.718 185.211 26.514C184.614 25.31 184.315 23.952 184.315 22.44C184.315 20.9093 184.623 19.542 185.239 18.338C185.865 17.134 186.742 16.1867 187.871 15.496C189.001 14.8053 190.335 14.46 191.875 14.46C193.658 14.46 195.151 14.9127 196.355 15.818C197.569 16.714 198.343 17.9413 198.679 19.5L194.871 20.508C194.647 19.724 194.255 19.1127 193.695 18.674C193.145 18.2353 192.519 18.016 191.819 18.016C191.017 18.016 190.359 18.212 189.845 18.604C189.332 18.9867 188.954 19.514 188.711 20.186C188.469 20.8487 188.347 21.6 188.347 22.44C188.347 23.756 188.637 24.8247 189.215 25.646C189.803 26.458 190.671 26.864 191.819 26.864C192.678 26.864 193.331 26.668 193.779 26.276C194.227 25.884 194.563 25.324 194.787 24.596L198.679 25.408C198.25 27.0133 197.438 28.25 196.243 29.118C195.049 29.986 193.574 30.42 191.819 30.42Z" fill="black"/>
<path d="M70.548 51.18C69.684 51.18 68.938 50.992 68.31 50.616C67.686 50.24 67.204 49.714 66.864 49.038C66.528 48.362 66.36 47.576 66.36 46.68C66.36 45.784 66.528 44.998 66.864 44.322C67.204 43.646 67.686 43.12 68.31 42.744C68.938 42.368 69.684 42.18 70.548 42.18C71.54 42.18 72.372 42.426 73.044 42.918C73.72 43.41 74.196 44.076 74.472 44.916L72.828 45.372C72.668 44.848 72.398 44.442 72.018 44.154C71.638 43.862 71.148 43.716 70.548 43.716C70 43.716 69.542 43.838 69.174 44.082C68.81 44.326 68.536 44.67 68.352 45.114C68.168 45.558 68.076 46.08 68.076 46.68C68.076 47.28 68.168 47.802 68.352 48.246C68.536 48.69 68.81 49.034 69.174 49.278C69.542 49.522 70 49.644 70.548 49.644C71.148 49.644 71.638 49.498 72.018 49.206C72.398 48.914 72.668 48.508 72.828 47.988L74.472 48.444C74.196 49.284 73.72 49.95 73.044 50.442C72.372 50.934 71.54 51.18 70.548 51.18ZM76.9331 51V42.36H82.5731V43.884H78.5651V45.732H81.8531V47.256H78.5651V49.476H82.5731V51H76.9331ZM85.1513 51V42.36H86.8073L90.5633 48.12V42.36H92.2193V51H90.5633L86.8073 45.24V51H85.1513ZM97.0374 51V43.884H94.3134V42.36H101.393V43.884H98.6694V51H97.0374ZM103.498 51V42.36H107.146C107.23 42.36 107.342 42.364 107.482 42.372C107.626 42.376 107.754 42.388 107.866 42.408C108.382 42.488 108.804 42.658 109.132 42.918C109.464 43.178 109.708 43.506 109.864 43.902C110.02 44.294 110.098 44.732 110.098 45.216C110.098 45.94 109.918 46.56 109.558 47.076C109.198 47.588 108.634 47.904 107.866 48.024L107.146 48.072H105.13V51H103.498ZM108.37 51L106.666 47.484L108.346 47.16L110.218 51H108.37ZM105.13 46.548H107.074C107.158 46.548 107.25 46.544 107.35 46.536C107.45 46.528 107.542 46.512 107.626 46.488C107.846 46.428 108.016 46.328 108.136 46.188C108.256 46.044 108.338 45.886 108.382 45.714C108.43 45.538 108.454 45.372 108.454 45.216C108.454 45.06 108.43 44.896 108.382 44.724C108.338 44.548 108.256 44.39 108.136 44.25C108.016 44.106 107.846 44.004 107.626 43.944C107.542 43.92 107.45 43.904 107.35 43.896C107.25 43.888 107.158 43.884 107.074 43.884H105.13V46.548ZM112.077 51L114.717 42.36H117.153L119.793 51H118.113L115.761 43.38H116.073L113.757 51H112.077ZM113.661 49.2V47.676H118.221V49.2H113.661ZM122.128 51V42.36H123.76V49.476H127.48V51H122.128ZM132.585 51V42.36H134.217V45.912H138.081V42.36H139.713V51H138.081V47.436H134.217V51H132.585ZM146.246 51.18C145.382 51.18 144.636 50.992 144.008 50.616C143.384 50.24 142.902 49.714 142.562 49.038C142.226 48.362 142.058 47.576 142.058 46.68C142.058 45.784 142.226 44.998 142.562 44.322C142.902 43.646 143.384 43.12 144.008 42.744C144.636 42.368 145.382 42.18 146.246 42.18C147.11 42.18 147.854 42.368 148.478 42.744C149.106 43.12 149.588 43.646 149.924 44.322C150.264 44.998 150.434 45.784 150.434 46.68C150.434 47.576 150.264 48.362 149.924 49.038C149.588 49.714 149.106 50.24 148.478 50.616C147.854 50.992 147.11 51.18 146.246 51.18ZM146.246 49.644C146.794 49.652 147.25 49.534 147.614 49.29C147.978 49.046 148.25 48.7 148.43 48.252C148.614 47.804 148.706 47.28 148.706 46.68C148.706 46.08 148.614 45.56 148.43 45.12C148.25 44.68 147.978 44.338 147.614 44.094C147.25 43.85 146.794 43.724 146.246 43.716C145.698 43.708 145.242 43.826 144.878 44.07C144.514 44.314 144.24 44.66 144.056 45.108C143.876 45.556 143.786 46.08 143.786 46.68C143.786 47.28 143.876 47.8 144.056 48.24C144.24 48.68 144.514 49.022 144.878 49.266C145.242 49.51 145.698 49.636 146.246 49.644ZM156.035 51.18C155.395 51.18 154.817 51.068 154.301 50.844C153.789 50.616 153.367 50.292 153.035 49.872C152.707 49.448 152.499 48.944 152.411 48.36L154.115 48.108C154.235 48.604 154.483 48.986 154.859 49.254C155.235 49.522 155.663 49.656 156.143 49.656C156.411 49.656 156.671 49.614 156.923 49.53C157.175 49.446 157.381 49.322 157.541 49.158C157.705 48.994 157.787 48.792 157.787 48.552C157.787 48.464 157.773 48.38 157.745 48.3C157.721 48.216 157.679 48.138 157.619 48.066C157.559 47.994 157.473 47.926 157.361 47.862C157.253 47.798 157.115 47.74 156.947 47.688L154.703 47.028C154.535 46.98 154.339 46.912 154.115 46.824C153.895 46.736 153.681 46.61 153.473 46.446C153.265 46.282 153.091 46.066 152.951 45.798C152.815 45.526 152.747 45.184 152.747 44.772C152.747 44.192 152.893 43.71 153.185 43.326C153.477 42.942 153.867 42.656 154.355 42.468C154.843 42.28 155.383 42.188 155.975 42.192C156.571 42.2 157.103 42.302 157.571 42.498C158.039 42.694 158.431 42.98 158.747 43.356C159.063 43.728 159.291 44.184 159.431 44.724L157.667 45.024C157.603 44.744 157.485 44.508 157.313 44.316C157.141 44.124 156.935 43.978 156.695 43.878C156.459 43.778 156.211 43.724 155.951 43.716C155.695 43.708 155.453 43.744 155.225 43.824C155.001 43.9 154.817 44.012 154.673 44.16C154.533 44.308 154.463 44.484 154.463 44.688C154.463 44.876 154.521 45.03 154.637 45.15C154.753 45.266 154.899 45.36 155.075 45.432C155.251 45.504 155.431 45.564 155.615 45.612L157.115 46.02C157.339 46.08 157.587 46.16 157.859 46.26C158.131 46.356 158.391 46.492 158.639 46.668C158.891 46.84 159.097 47.068 159.257 47.352C159.421 47.636 159.503 47.996 159.503 48.432C159.503 48.896 159.405 49.302 159.209 49.65C159.017 49.994 158.757 50.28 158.429 50.508C158.101 50.732 157.729 50.9 157.313 51.012C156.901 51.124 156.475 51.18 156.035 51.18ZM161.962 51V42.36H165.61C165.694 42.36 165.806 42.364 165.946 42.372C166.09 42.376 166.218 42.388 166.33 42.408C166.846 42.488 167.268 42.658 167.596 42.918C167.928 43.178 168.172 43.506 168.328 43.902C168.484 44.294 168.562 44.732 168.562 45.216C168.562 45.7 168.482 46.14 168.322 46.536C168.166 46.928 167.922 47.254 167.59 47.514C167.262 47.774 166.842 47.944 166.33 48.024C166.218 48.04 166.09 48.052 165.946 48.06C165.802 48.068 165.69 48.072 165.61 48.072H163.594V51H161.962ZM163.594 46.548H165.538C165.622 46.548 165.714 46.544 165.814 46.536C165.914 46.528 166.006 46.512 166.09 46.488C166.31 46.428 166.48 46.328 166.6 46.188C166.72 46.044 166.802 45.886 166.846 45.714C166.894 45.538 166.918 45.372 166.918 45.216C166.918 45.06 166.894 44.896 166.846 44.724C166.802 44.548 166.72 44.39 166.6 44.25C166.48 44.106 166.31 44.004 166.09 43.944C166.006 43.92 165.914 43.904 165.814 43.896C165.714 43.888 165.622 43.884 165.538 43.884H163.594V46.548ZM171.027 51V42.36H172.659V51H171.027ZM177.601 51V43.884H174.877V42.36H181.957V43.884H179.234V51H177.601ZM183.227 51L185.867 42.36H188.303L190.943 51H189.263L186.911 43.38H187.223L184.907 51H183.227ZM184.811 49.2V47.676H189.371V49.2H184.811ZM193.279 51V42.36H194.911V49.476H198.631V51H193.279Z" fill="#8E8E8E"/>
</svg>
